<?xml version="1.0" encoding="utf-8"?>
<?xml-stylesheet type="text/xsl" href="rss1.xsl"?>
<rss version="2.0" xmlns:atom="http://www.w3.org/2005/Atom" xmlns:content="http://purl.org/rss/1.0/modules/content/" xmlns:dc="http://purl.org/dc/elements/1.1/" xmlns:media="http://search.yahoo.com/mrss/">
<channel>
 <title>Getty</title>
 <link>http://www.gettyimg.com/</link>
 <atom:link href="http://www.gettyimg.com/" rel="self" type="application/rss+xml" />

 
                <item>
                <title><![CDATA[【Music Videos】Depeche Mode - See You (1080p 5.1) VJ-RoGeRs Edit (Clean)]]></title>
                <link><![CDATA[https://sharemania.us/threads/depeche-mode-see-you-1080p-5-1-vj-rogers-edit-clean.238804/]]></link>
                <description><![CDATA[<article>
<blockquote class="messageText SelectQuoteContainer ugc baseHtml">
<img src="https://i.ibb.co/7RYV8xT/Depeche-Mode-See-You-1080p-5-1-mp4-thumbs-2024-02-27-22-21-10.jpg" class="bbCodeImage LbImage" alt="[​IMG]" data-url="https://i.ibb.co/7RYV8xT/Depeche-Mode-See-You-1080p-5-1-mp4-thumbs-2024-02-27-22-21-10.jpg" style=""> <br>
<br>
<div class="ToggleTriggerAnchor bbCodeSpoilerContainer">
<button type="button" class="button bbCodeSpoilerButton ToggleTrigger Tooltip JsOnly" data-target="> .SpoilerTarget"><span>Spoiler: <span class="SpoilerTitle">MediaInfo</span></span></button>
<div class="SpoilerTarget bbCodeSpoilerText">Depeche Mode - See You (1080p 5.1).mp4<br>
Format : MPEG-4<br>
Format profile : Base Media / Version 2<br>
Codec ID : mp42 (mp42/mp41)<br>
File size : 399 MiB<br>
Duration : 4 min 31 s<br>
Overall bit rate mode : Variable<br>
Overall bit rate : 12.3 Mb/s<br>
Frame rate : 30.000 FPS<br>
Encoded date : 2024-02-27 23:26:28 UTC<br>
Tagged date : 2024-02-27 23:27:24 UTC<br>
TIM : 00:00:00:00<br>
TSC : 30<br>
TSZ : 1<br>
<br>
Video<br>
ID : 1<br>
Format : AVC<br>
Format/Info : Advanced Video Codec<br>
Format profile : Main@L4.1<br>
Format settings : CABAC / 4 Ref Frames<br>
Format settings, CABAC : Yes<br>
Format settings, Reference : 4 frames<br>
Codec ID : avc1<br>
Codec ID/Info : Advanced Video Coding<br>
Duration : 4 min 31 s<br>
Bit rate : 12.0 Mb/s<br>
Width : 1 920 pixels<br>
Height : 1 080 pixels<br>
Display aspect ratio : 16:9<br>
Frame rate mode : Constant<br>
Frame rate : 30.000 FPS<br>
Color space : YUV<br>
Chroma subsampling : 4:2:0<br>
Bit depth : 8 bits<br>
Scan type : Progressive<br>
Bits/(Pixel*Frame) : 0.193<br>
Stream size : 388 MiB (97%)<br>
Language : English<br>
Encoded date : 2024-02-27 23:26:28 UTC<br>
Tagged date : 2024-02-27 23:26:28 UTC<br>
Color range : Limited<br>
Color primaries : BT.709<br>
Transfer characteristics : BT.709<br>
Matrix coefficients : BT.709<br>
Codec configuration box : avcC<br>
<br>
Audio<br>
ID : 2<br>
Format : AAC LC<br>
Format/Info : Advanced Audio Codec Low Complexity<br>
Codec ID : mp4a-40-2<br>
Duration : 4 min 31 s<br>
Source duration : 4 min 31 s<br>
Bit rate mode : Variable<br>
Bit rate : 317 kb/s<br>
Maximum bit rate : 732 kb/s<br>
Channel(s) : 6 channels<br>
Channel layout : C L R Ls Rs LFE<br>
Sampling rate : 48.0 kHz<br>
Frame rate : 46.875 FPS (1024 SPF)<br>
Compression mode : Lossy<br>
Stream size : 10.3 MiB (3%)<br>
Source stream size : 10.3 MiB (3%)<br>
Language : English<br>
Encoded date : 2024-02-27 23:26:28 UTC<br>
Tagged date : 2024-02-27 23:26:28 UTC</div>
</div><br>
*Esta edición de video lo hice con mucho respeto, cariño, esfuerzo, dedicación y amor pues es la canción que más me gusta del grupo musical que tanto amo como lo es Depeche Mode! Solo espero que lo disfruten, lo cuiden y lo valoren como tal!!! Muchisimas gracias por su apoyo y vamos por más!!!!! <br>
*I made this video edition with a lot of respect, affection, effort, dedication and love because it is the song that I like the most from the musical group that I love so much, Depeche Mode! I just hope you enjoy it, take care of it and value it as such!!! Thank you very much for your support and let's go for more!!!!!<br>
<br>
<div class="bbCodeBlock bbCodeVfcHH HiddenContent">
<div class="attribution type">Hidden Content:</div>
<blockquote>You must reply before you can see the hidden data contained here.</blockquote>
</div>
<div class="messageTextEndMarker">&nbsp;</div>
</blockquote>
</article>]]></description>
                <author><![CDATA[DJ-RoGeRs-BS]]></author>
                </item>

                </channel></rss>